<?xml version="1.0" standalone="no"?>
<!DOCTYPE svg PUBLIC "-//W3C//DTD SVG 20010904//EN"
 "http://www.w3.org/TR/2001/REC-SVG-20010904/DTD/svg10.dtd">
<svg version="1.0" xmlns="http://www.w3.org/2000/svg"
 width="801.000000pt" height="720.000000pt" viewBox="0 0 801.000000 720.000000"
 preserveAspectRatio="xMidYMid meet">

<g transform="translate(0.000000,720.000000) scale(0.100000,-0.100000)"
fill="#000000" stroke="none">
<path d="M0 3600 l0 -3600 4005 0 4005 0 0 3600 0 3600 -4005 0 -4005 0 0
-3600z m2828 2588 c2 -239 5 -308 15 -308 7 0 79 136 161 303 81 166 153 305
160 309 6 4 91 8 189 8 142 0 179 -3 183 -14 3 -7 -33 -87 -79 -177 -47 -90
-119 -231 -161 -312 -42 -81 -76 -159 -76 -172 0 -13 16 -65 36 -117 19 -51
42 -113 51 -138 8 -25 21 -58 28 -75 7 -16 18 -46 25 -65 7 -19 19 -48 26 -65
6 -16 35 -93 64 -170 28 -77 63 -166 76 -198 13 -32 24 -65 24 -73 0 -12 -31
-14 -184 -14 -183 0 -185 0 -191 23 -3 12 -10 31 -15 42 -4 11 -15 43 -25 70
-9 28 -20 59 -25 70 -4 11 -17 49 -29 85 -36 115 -83 245 -90 253 -4 4 -23
-14 -41 -40 -19 -27 -37 -50 -40 -53 -4 -3 -23 -29 -43 -59 l-37 -53 0 -169 0
-169 -155 0 -155 0 0 788 c0 434 3 792 7 796 4 3 72 5 152 4 l146 -3 3 -307z
m1677 117 l0 -190 -257 -3 -258 -2 0 -95 0 -95 220 0 220 0 0 -189 0 -188 -31
-7 c-17 -3 -117 -6 -221 -6 l-189 0 3 -117 3 -118 249 -3 c166 -1 254 -6 263
-14 11 -8 13 -48 11 -187 l-3 -176 -420 0 -420 0 -3 770 c-1 424 0 780 3 793
l5 22 413 -2 412 -3 0 -190z m893 178 c171 -80 245 -370 153 -598 -18 -46 -24
-55 -68 -102 -18 -19 -33 -37 -33 -40 0 -3 20 -23 44 -44 153 -135 155 -542 4
-715 -65 -74 -64 -74 -463 -74 l-355 0 0 788 c0 434 3 792 7 795 3 4 157 7
341 7 295 0 338 -2 370 -17z m-603 -2370 c66 -22 86 -33 128 -70 90 -79 142
-194 161 -353 11 -92 15 -90 -149 -90 -154 0 -155 0 -155 55 0 56 -60 115
-117 115 -38 0 -91 -34 -104 -67 -13 -34 -3 -82 24 -110 11 -13 63 -39 116
-58 219 -81 302 -141 358 -259 45 -94 56 -155 50 -291 -3 -66 -9 -140 -15
-165 -9 -44 -13 -55 -54 -148 -30 -68 -104 -141 -178 -176 -59 -27 -74 -30
-170 -31 -171 0 -278 38 -357 129 -77 87 -128 250 -121 386 l3 65 145 0 145 0
6 -45 c7 -51 23 -96 42 -113 44 -42 136 -49 188 -14 32 21 34 27 34 77 0 51
-2 55 -41 85 -22 17 -67 39 -100 49 -172 52 -303 144 -353 251 -39 82 -44 113
-48 270 -3 121 -1 161 13 205 53 170 125 252 269 304 57 21 218 20 280 -1z
m2308 8 c28 -2 23 -45 -29 -236 -44 -158 -143 -410 -231 -588 -30 -59 -51
-112 -48 -117 7 -11 193 -14 219 -4 14 5 16 28 16 153 0 132 3 153 26 216 50
135 104 304 119 378 5 26 8 27 70 27 l65 0 0 -385 0 -384 33 -5 c17 -3 48 -7
67 -8 l35 -3 0 -170 0 -170 -35 -3 c-19 -1 -50 -5 -67 -8 l-32 -5 -3 -157 -3
-157 -132 -3 c-158 -3 -146 -19 -141 180 3 130 2 137 -17 142 -11 3 -116 6
-232 6 l-213 0 0 180 c0 180 2 196 41 272 5 10 9 25 9 33 0 8 4 23 9 33 11 20
52 142 76 227 9 33 23 80 31 104 8 25 14 53 14 63 0 10 4 26 9 36 9 18 33 119
51 217 20 104 30 133 47 137 16 3 204 2 246 -1z m-855 -49 c104 -51 170 -149
207 -308 27 -117 13 -265 -37 -394 -20 -52 -107 -193 -145 -235 -62 -69 -193
-225 -193 -229 0 -3 84 -6 188 -6 103 0 193 -4 200 -9 10 -6 12 -51 10 -202
l-3 -194 -397 -3 -398 -2 -6 25 c-9 35 14 240 32 295 38 112 111 230 315 505
130 176 153 223 153 311 -1 104 -37 154 -113 154 -65 0 -110 -69 -120 -185
l-6 -70 -125 0 -125 0 3 111 c5 218 86 372 231 437 97 44 239 44 329 -1z
m-5254 -17 c9 -13 16 -31 16 -39 0 -8 3 -16 8 -18 4 -1 79 -146 167 -320 88
-175 163 -318 166 -318 13 0 16 77 17 387 0 172 4 317 7 323 4 6 63 10 146 10
l139 0 0 -795 0 -796 -141 3 -141 3 -60 115 c-63 120 -148 283 -241 460 -31
58 -62 105 -69 105 -10 0 -13 -65 -15 -329 -1 -181 -5 -336 -7 -343 -4 -11
-35 -13 -143 -11 l-138 3 -3 780 c-1 429 0 786 3 793 3 9 40 12 139 12 131 0
134 0 150 -25z m1701 -165 l0 -185 -255 -5 -255 -5 0 -95 0 -95 218 -3 217 -2
0 -190 0 -190 -217 -2 -218 -3 0 -120 0 -120 258 -3 257 -2 0 -190 0 -190
-417 2 -418 3 -3 780 c-1 429 0 786 3 793 3 10 92 12 417 10 l413 -3 0 -185z
m409 153 c4 -21 11 -79 16 -130 4 -51 11 -101 15 -112 3 -11 10 -61 15 -113 8
-81 24 -212 46 -380 8 -59 24 -63 24 -7 0 22 7 86 14 142 8 56 20 149 26 207
6 58 18 149 26 203 8 54 14 115 14 137 0 21 4 50 10 65 l10 26 152 -3 152 -3
13 -95 c8 -52 20 -142 28 -200 8 -58 17 -125 19 -150 23 -217 49 -393 59 -384
4 4 7 31 7 59 0 29 5 76 10 106 10 49 20 136 39 339 22 220 35 316 45 322 12
9 300 11 308 3 3 -3 1 -25 -4 -48 -4 -23 -12 -78 -18 -122 -5 -44 -16 -127
-25 -185 -9 -58 -20 -139 -25 -180 -5 -41 -16 -120 -25 -175 -8 -55 -19 -131
-24 -170 -5 -38 -17 -119 -26 -180 -9 -60 -20 -141 -25 -180 -18 -149 -32
-242 -43 -290 l-12 -50 -164 -3 c-91 -1 -168 1 -173 6 -8 8 -22 93 -38 237 -5
44 -16 132 -25 195 -9 63 -20 151 -25 195 -32 268 -41 297 -54 170 -3 -27 -12
-102 -21 -165 -9 -63 -20 -151 -25 -195 -5 -44 -17 -134 -26 -200 -9 -66 -19
-147 -22 -180 l-7 -60 -175 0 -175 0 -7 40 c-4 22 -12 74 -17 115 -6 41 -17
122 -26 180 -9 58 -20 137 -25 175 -5 39 -16 120 -25 180 -9 61 -20 142 -24
180 -5 39 -14 102 -20 140 -14 86 -25 164 -46 320 -9 66 -21 144 -27 173 -16
85 -21 82 161 82 l159 0 6 -37z m1587 -2203 c15 -17 33 -52 41 -78 14 -41 19
-47 47 -50 23 -2 31 -8 31 -23 0 -14 -7 -19 -30 -19 l-30 0 0 -165 0 -165 -25
0 -25 0 0 165 0 165 -50 0 -50 0 0 -165 0 -165 -25 0 c-25 0 -25 2 -25 78 l0
77 -95 2 c-116 2 -119 -5 -35 -78 47 -41 58 -55 49 -65 -6 -8 -17 -14 -24 -14
-16 0 -140 131 -160 169 -25 50 2 79 53 57 28 -12 42 4 42 46 0 52 -8 58 -71
58 -52 0 -59 2 -59 20 0 19 7 20 139 20 l140 0 -6 55 c-5 45 -2 59 13 76 44
49 113 48 155 -1z m529 1 c14 -17 34 -53 44 -81 16 -44 21 -50 47 -50 22 0 29
-5 29 -20 0 -16 -7 -20 -30 -20 l-30 0 0 -165 0 -165 -25 0 -25 0 0 165 0 165
-50 0 -50 0 -2 -162 c-3 -160 -3 -163 -25 -166 -21 -3 -23 1 -23 38 l0 42 -32
-9 c-63 -15 -115 -9 -143 17 -24 22 -26 31 -22 73 4 42 1 52 -19 72 -35 35
-33 96 2 124 38 30 87 28 113 -5 24 -31 26 -44 8 -68 -15 -21 -49 -12 -46 13
3 35 -1 42 -23 39 -14 -2 -26 -14 -33 -32 -8 -24 -6 -31 14 -47 15 -12 39 -19
67 -19 37 0 44 -3 44 -20 0 -14 -7 -20 -21 -20 -36 0 -59 -19 -59 -50 0 -21 6
-31 23 -36 37 -12 80 -5 104 18 21 19 23 31 23 110 0 81 -2 88 -20 88 -13 0
-20 7 -20 20 0 11 4 20 9 20 6 0 7 24 4 55 -5 45 -2 59 13 76 43 49 113 48
154 0z m1345 -151 c0 -9 -11 -16 -27 -18 -26 -3 -28 -6 -28 -53 0 -42 -5 -55
-27 -78 -16 -15 -37 -33 -48 -39 -19 -11 -16 -15 43 -73 59 -58 73 -89 39 -89
-20 0 -151 129 -171 168 -27 52 -2 80 52 60 43 -16 62 2 62 58 l0 44 -100 0
-100 0 0 -165 0 -165 -25 0 -25 0 0 110 0 110 -50 0 c-51 0 -61 -8 -35 -30 9
-7 15 -29 15 -53 0 -107 -129 -120 -192 -20 -34 55 -59 114 -52 124 13 22 41
7 54 -28 19 -54 51 -100 78 -113 31 -13 38 -13 56 6 21 20 11 60 -23 97 -20
22 -23 31 -15 45 9 14 26 17 88 17 l76 0 0 33 0 32 -200 0 -200 0 0 -165 0
-165 -25 0 c-25 0 -25 1 -25 90 l0 90 -55 0 c-54 0 -55 -1 -55 -29 0 -51 -49
-49 -84 4 -10 15 -14 34 -11 45 6 18 16 20 106 20 l99 0 0 55 0 55 -115 0
c-108 0 -115 1 -115 20 0 19 8 20 388 22 495 4 647 -2 647 -22z m-4565 0 c0
-16 -7 -20 -30 -20 -29 0 -30 -1 -30 -51 0 -42 -5 -55 -27 -78 -16 -15 -37
-32 -47 -38 -18 -10 -18 -11 -1 -34 10 -13 38 -40 61 -59 43 -35 52 -62 23
-68 -19 -3 -151 124 -174 167 -26 50 6 86 51 56 22 -14 25 -14 44 5 13 13 20
33 20 60 l0 40 -103 0 -102 0 3 -45 4 -45 -74 0 c-85 0 -121 -16 -102 -47 9
-14 22 -17 65 -15 89 5 142 -43 125 -113 -7 -26 -63 -68 -78 -59 -15 10 -8 39
13 52 52 33 -7 89 -77 74 -75 -15 -78 -80 -7 -147 37 -36 41 -44 29 -54 -20
-16 -45 -3 -89 49 -41 49 -51 92 -30 138 13 28 14 37 3 58 -18 32 -4 74 30 91
14 7 51 13 83 13 54 0 57 1 57 25 l0 25 -110 0 c-103 0 -110 1 -110 20 0 20 7
20 290 20 283 0 290 0 290 -20z m1280 0 c0 -16 -7 -20 -30 -20 -29 0 -30 -1
-30 -51 0 -42 -5 -55 -27 -78 -16 -15 -37 -32 -47 -38 -18 -10 -18 -11 -1 -34
10 -13 38 -40 61 -59 43 -35 52 -62 23 -68 -19 -3 -151 124 -174 167 -26 50 6
86 51 56 22 -14 25 -14 44 5 13 13 20 33 20 60 l0 40 -105 0 -105 0 0 -165 0
-165 -25 0 c-23 0 -25 3 -25 49 l0 49 -43 -16 c-84 -30 -167 13 -167 88 0 69
65 116 150 108 28 -2 36 -8 38 -26 3 -22 1 -23 -32 -16 -27 5 -36 3 -36 -7 1
-21 67 -92 79 -84 7 3 11 43 11 96 l0 89 -145 0 -145 0 0 -165 0 -165 -24 0
c-13 0 -26 5 -28 11 -3 8 -16 8 -47 -1 -105 -28 -248 49 -310 167 -22 42 10
69 57 49 28 -12 42 4 42 46 0 52 -8 58 -71 58 -52 0 -59 2 -59 20 0 20 7 20
550 20 543 0 550 0 550 -20z m773 14 c12 -12 -6 -34 -29 -34 -22 0 -24 -4 -24
-48 0 -54 -17 -85 -61 -107 -16 -9 -29 -20 -29 -25 0 -11 101 -110 113 -110
12 0 8 -27 -7 -39 -11 -10 -30 4 -94 69 -88 89 -111 130 -86 155 19 18 18 18
54 0 27 -14 30 -14 44 7 9 12 16 39 16 60 l0 38 -100 0 -100 0 0 -165 0 -165
-25 0 c-24 0 -25 3 -25 56 0 50 -2 55 -17 48 -10 -4 -39 -9 -65 -12 -42 -3
-51 -1 -78 26 -29 29 -30 34 -30 121 0 90 0 91 -25 91 -18 0 -25 5 -25 20 0
20 7 20 293 20 162 0 296 -3 300 -6z"/>
<path d="M5004 6127 c-2 -7 -3 -62 -2 -123 l3 -109 96 -3 c92 -3 98 -1 128 24
29 24 31 29 31 97 0 63 -3 76 -25 100 -25 26 -30 27 -126 27 -73 0 -101 -3
-105 -13z"/>
<path d="M5007 5553 c-4 -3 -7 -64 -7 -135 l0 -128 119 0 120 0 21 30 c44 61
31 202 -20 230 -21 11 -223 14 -233 3z"/>
<path d="M4582 1818 c-15 -15 -16 -62 -2 -89 9 -15 19 -18 63 -15 48 3 52 5
49 26 -5 45 -36 85 -68 88 -16 2 -35 -3 -42 -10z"/>
<path d="M4425 1623 c0 -27 -4 -55 -8 -64 -10 -20 24 -27 91 -21 l42 4 0 64 0
64 -63 0 -62 0 0 -47z"/>
<path d="M5112 1818 c-15 -15 -16 -62 -2 -88 8 -16 21 -19 60 -19 28 1 53 5
56 10 2 5 -6 30 -18 56 -19 40 -28 49 -53 51 -17 2 -36 -3 -43 -10z"/>
<path d="M2357 1631 c6 -44 -19 -106 -48 -122 -11 -5 -19 -14 -19 -19 0 -17
53 -62 94 -81 72 -33 186 -21 186 20 0 17 -6 19 -58 14 -52 -5 -61 -3 -87 20
-24 20 -30 33 -30 67 0 59 37 90 106 90 42 0 49 -3 49 -20 0 -17 -7 -20 -40
-20 -31 0 -43 -5 -56 -25 -15 -23 -15 -27 0 -50 19 -29 60 -33 94 -9 20 13 22
24 22 95 l0 79 -109 0 -109 0 5 -39z"/>
<path d="M2756 1544 c-18 -48 10 -94 60 -94 35 0 35 11 -4 61 -41 53 -47 57
-56 33z"/>
<path d="M3560 1587 c0 -114 26 -139 106 -101 l34 16 0 84 0 84 -70 0 -70 0 0
-83z"/>
</g>
</svg>
